<svg width="1200" height="676" viewBox="0 0 1200 676" fill="none" xmlns="http://www.w3.org/2000/svg" role="img" aria-labelledby="title desc">
  <title id="title">Archive Cards: Collection</title>
  <desc id="desc">Archive card identity study for Collection.</desc>
  <defs>
    <filter id="paper" x="-10%" y="-10%" width="120%" height="120%">
      <feTurbulence type="fractalNoise" baseFrequency="0.72" numOctaves="2" seed="50"/>
      <feColorMatrix type="saturate" values="0"/>
      <feComponentTransfer><feFuncA type="table" tableValues="0 0.06"/></feComponentTransfer>
    </filter>
    <filter id="softShadow" x="-20%" y="-20%" width="140%" height="140%">
      <feDropShadow dx="0" dy="12" stdDeviation="9" flood-color="#1e1919" flood-opacity="0.16"/>
    </filter>
  </defs>
  <style>
    .bg { fill: #f3eadb; }
    .card { fill: #fffaf0; stroke: #241c18; stroke-width: 4; }
    .cardAlt { fill: #f8dfb7; stroke: #241c18; stroke-width: 4; }
    .red { stroke: #b83232; fill: none; stroke-width: 5; stroke-linecap: round; stroke-linejoin: round; }
    .line { stroke: #241c18; stroke-width: 3; stroke-linecap: round; stroke-linejoin: round; }
    .stamp { fill: none; stroke: #b83232; stroke-width: 5; }
    .label { fill: #241c18; font: 700 35px Georgia, "Times New Roman", serif; letter-spacing: 0; }
    .small { fill: #241c18; font: 700 23px "Azeret Mono", "DejaVu Sans Mono", monospace; letter-spacing: 0; }
    .tiny { fill: #241c18; font: 650 16px "Azeret Mono", "DejaVu Sans Mono", monospace; letter-spacing: 0; }
    .stampText { fill: #b83232; font: 800 22px "Azeret Mono", "DejaVu Sans Mono", monospace; letter-spacing: 0; }
  </style>
  <rect width="1200" height="676" class="bg"/>
  <rect width="1200" height="676" fill="#1e1919" filter="url(#paper)" opacity="0.25"/>
  <path d="M884 86H1076V150H884Z" fill="#d2b182" opacity="0.45" stroke="#241c18" stroke-width="3"/>
  <path d="M904 118H1054" class="line" opacity="0.65"/>
  <path d="M996 184C1024 166 1064 166 1092 186C1064 204 1024 204 996 184Z" fill="none" stroke="#b83232" stroke-width="4" opacity="0.5"/>
  <path d="M1008 184H1080" class="red" opacity="0.5"/>
<path d="M114 108C252.6 86 424.59999999999997 96 502 150L448 538C312.8 520 175.2 534 96 556C64 422 74 224 114 108Z" class="card"/>
  <path d="M122 198H468" class="line"/>
  <text x="126" y="168" class="label" >Collection</text>
  <text x="144" y="260" class="small" >mdbase.yaml</text>
<text x="144" y="308" class="small" >_types/task.md</text>
<text x="144" y="356" class="small" >notes/idea.md</text>
  <path d="M584 156H1016L1064 206V536H584Z" class="cardAlt"/>
  <path d="M584 206H1064" class="line"/>
  <text x="632" y="272" class="small" >folder inventory</text>
  <text x="632" y="330" class="small" >rooted scan</text>
<text x="632" y="374" class="small" >typed files</text>
<text x="632" y="418" class="small" >plain markdown</text>
  <rect x="760" y="438" width="206" height="82" rx="8" class="stamp" transform="rotate(-7 863 479)"/>
  <text x="796" y="488" class="stampText" transform="rotate(-7 863 479)">PORTABLE</text>
  <path d="M100 84C132 70 169 67 208 77" class="line"/>
  <path d="M982 582C1020 598 1062 594 1103 570" class="line"/>
</svg>
