<svg width="1200" height="676" viewBox="0 0 1200 676" fill="none" xmlns="http://www.w3.org/2000/svg" role="img" aria-labelledby="title desc">
  <title id="title">Archive Cards: Links</title>
  <desc id="desc">Archive card identity study for Links.</desc>
  <defs>
    <filter id="paper" x="-10%" y="-10%" width="120%" height="120%">
      <feTurbulence type="fractalNoise" baseFrequency="0.72" numOctaves="2" seed="53"/>
      <feColorMatrix type="saturate" values="0"/>
      <feComponentTransfer><feFuncA type="table" tableValues="0 0.06"/></feComponentTransfer>
    </filter>
    <filter id="softShadow" x="-20%" y="-20%" width="140%" height="140%">
      <feDropShadow dx="0" dy="12" stdDeviation="9" flood-color="#1e1919" flood-opacity="0.16"/>
    </filter>
  </defs>
  <style>
    .bg { fill: #f3eadb; }
    .card { fill: #fffaf0; stroke: #241c18; stroke-width: 4; }
    .cardAlt { fill: #f8dfb7; stroke: #241c18; stroke-width: 4; }
    .red { stroke: #b83232; fill: none; stroke-width: 5; stroke-linecap: round; stroke-linejoin: round; }
    .line { stroke: #241c18; stroke-width: 3; stroke-linecap: round; stroke-linejoin: round; }
    .stamp { fill: none; stroke: #b83232; stroke-width: 5; }
    .label { fill: #241c18; font: 700 35px Georgia, "Times New Roman", serif; letter-spacing: 0; }
    .small { fill: #241c18; font: 700 23px "Azeret Mono", "DejaVu Sans Mono", monospace; letter-spacing: 0; }
    .tiny { fill: #241c18; font: 650 16px "Azeret Mono", "DejaVu Sans Mono", monospace; letter-spacing: 0; }
    .stampText { fill: #b83232; font: 800 22px "Azeret Mono", "DejaVu Sans Mono", monospace; letter-spacing: 0; }
  </style>
  <rect width="1200" height="676" class="bg"/>
  <rect width="1200" height="676" fill="#1e1919" filter="url(#paper)" opacity="0.25"/>
  <path d="M94 506C200 474 330 490 426 554" class="red" opacity="0.45"/>
  <path d="M862 96C920 72 998 84 1048 132" class="line" opacity="0.55"/>
  <path d="M902 96C930 132 982 132 1018 98" class="red" opacity="0.45"/>
  <circle cx="902" cy="96" r="9" fill="#b83232" opacity="0.8"/>
  <circle cx="1018" cy="98" r="9" fill="#b83232" opacity="0.8"/>
<path d="M122 122C206 100 326 110 380 164L326 452C248.00000000000003 434 152 448 104 470C72 336 82 238 122 122Z" class="card"/>
  <path d="M494 82C578 60 698 70 752 124L698 412C620 394 524 408 476 430C444 296 454 198 494 82Z" class="cardAlt"/>
  <path d="M832 176C916 154 1036 164 1090 218L1036 506C958 488 862 502 814 524C782 390 792 292 832 176Z" class="card"/>
  <text x="130" y="182" class="label" >raw</text>
  <text x="504" y="142" class="label" >resolver</text>
  <text x="850" y="236" class="label" >file</text>
  <text x="128" y="250" class="small" >[[alpha]]</text>
<text x="128" y="292" class="small" >[Plan](b.md)</text>
<text x="128" y="334" class="small" >../team.md</text>
  <text x="506" y="210" class="small" >id lookup</text>
<text x="506" y="252" class="small" >filename fallback</text>
<text x="506" y="294" class="small" >format preserved</text>
  <path d="M352 300C432 238 468 210 500 188M688 260C756 260 800 270 850 306" class="red"/>
  <circle cx="500" cy="188" r="12" fill="#b83232"/>
  <circle cx="850" cy="306" r="12" fill="#b83232"/>
  <rect x="812" y="452" width="206" height="82" rx="8" class="stamp" transform="rotate(-10 915 493)"/>
  <text x="848" y="502" class="stampText" transform="rotate(-10 915 493)">PORTABLE</text>
  <path d="M100 84C132 70 169 67 208 77" class="line"/>
  <path d="M982 582C1020 598 1062 594 1103 570" class="line"/>
</svg>
