<svg width="1200" height="676" viewBox="0 0 1200 676" fill="none" xmlns="http://www.w3.org/2000/svg" role="img" aria-labelledby="title desc">
  <title id="title">Cut Paper Model: Runtime</title>
  <desc id="desc">Cut paper identity study for Runtime.</desc>
  <defs>
    <filter id="paper" x="-10%" y="-10%" width="120%" height="120%">
      <feTurbulence type="fractalNoise" baseFrequency="0.72" numOctaves="2" seed="94"/>
      <feColorMatrix type="saturate" values="0"/>
      <feComponentTransfer><feFuncA type="table" tableValues="0 0.06"/></feComponentTransfer>
    </filter>
    <filter id="softShadow" x="-20%" y="-20%" width="140%" height="140%">
      <feDropShadow dx="0" dy="12" stdDeviation="9" flood-color="#1e1919" flood-opacity="0.16"/>
    </filter>
  </defs>
  <style>
    .bg { fill: #fffdf8; }
    .paper1 { fill: #f8c94a; stroke: #1e1919; stroke-width: 5; filter: url(#softShadow); }
    .paper2 { fill: #ff647d; stroke: #1e1919; stroke-width: 5; filter: url(#softShadow); }
    .paper3 { fill: #2fb879; stroke: #1e1919; stroke-width: 5; filter: url(#softShadow); }
    .paper4 { fill: #2f7df4; stroke: #1e1919; stroke-width: 5; filter: url(#softShadow); }
    .line { stroke: #1e1919; stroke-width: 4; stroke-linecap: round; stroke-linejoin: round; }
    .thin { stroke: #1e1919; stroke-width: 3; stroke-linecap: round; stroke-linejoin: round; }
    .label { fill: #1e1919; font: 800 39px "DejaVu Sans", Arial, sans-serif; letter-spacing: 0; }
    .small { fill: #1e1919; font: 750 24px "DejaVu Sans", Arial, sans-serif; letter-spacing: 0; }
    .tiny { fill: #1e1919; font: 700 16px "Azeret Mono", "DejaVu Sans Mono", monospace; letter-spacing: 0; }
  </style>
  <rect width="1200" height="676" class="bg"/>
  <rect width="1200" height="676" fill="#1e1919" filter="url(#paper)" opacity="0.18"/>
  <path d="M126 260C222 198 354 214 420 310C486 406 436 536 318 572C210 604 92 536 72 426C60 354 76 292 126 260Z" class="paper3"/>
  <path d="M450 192C558 134 706 162 764 274C824 390 748 530 610 536C486 542 398 444 412 322C418 266 398 218 450 192Z" class="paper1"/>
  <path d="M796 234C900 168 1058 202 1110 326C1162 450 1066 572 924 554C810 540 730 438 756 326C766 282 756 258 796 234Z" class="paper2"/>
  <text x="166" y="370" class="small" >event</text>
  <text x="492" y="350" class="small" >workflow</text>
  <text x="840" y="370" class="small" >action</text>
  <path d="M418 356H472M764 356H812" class="line"/>
  <path d="M470 508C548 482 650 492 720 526C708 560 680 576 640 572C576 564 524 568 478 582C462 556 464 526 470 508Z" fill="#fffdf8" stroke="#1e1919" stroke-width="4" filter="url(#softShadow)"/>
  <text x="498" y="550" class="small" >policy gate</text>
  <path d="M864 414L922 474L1038 318" class="line"/>
  <path d="M146 512H360L326 596H112Z" fill="#fffdf8" stroke="#1e1919" stroke-width="4" filter="url(#softShadow)"/>
  <path d="M178 552H296" class="thin"/>
  <path d="M1000 118C1048 88 1106 104 1132 154C1088 174 1030 162 1000 118Z" fill="#fffdf8" stroke="#1e1919" stroke-width="4" filter="url(#softShadow)"/>
  <path d="M1038 124L1088 154" class="thin"/>
  <text x="82" y="118" class="label" >Runtime</text>
  <text x="84" y="154" class="small" >events, workflows, actions</text>
</svg>
