<svg width="1200" height="676" viewBox="0 0 1200 676" fill="none" xmlns="http://www.w3.org/2000/svg" role="img" aria-labelledby="title desc">
  <title id="title">Blueprint Systems: Query</title>
  <desc id="desc">Blueprint identity study for Query.</desc>
  <defs>
    <pattern id="minorGrid" width="32" height="32" patternUnits="userSpaceOnUse"><path d="M32 0H0V32" class="grid"/></pattern>
    <pattern id="majorGrid" width="160" height="160" patternUnits="userSpaceOnUse"><path d="M160 0H0V160" class="major"/></pattern>
    <filter id="paper" x="-10%" y="-10%" width="120%" height="120%">
      <feTurbulence type="fractalNoise" baseFrequency="0.72" numOctaves="2" seed="12"/>
      <feColorMatrix type="saturate" values="0"/>
      <feComponentTransfer><feFuncA type="table" tableValues="0 0.06"/></feComponentTransfer>
    </filter>
    <filter id="softShadow" x="-20%" y="-20%" width="140%" height="140%">
      <feDropShadow dx="0" dy="12" stdDeviation="9" flood-color="#1e1919" flood-opacity="0.16"/>
    </filter>
  </defs>
  <style>
    .bg { fill: #081d33; }
    .grid { stroke: #60d8ff; stroke-width: 1; opacity: 0.16; }
    .major { stroke: #60d8ff; stroke-width: 2; opacity: 0.24; }
    .panel { fill: #0d2a47; stroke: #bdf2ff; stroke-width: 4; }
    .panel2 { fill: #12395f; stroke: #6ee7ff; stroke-width: 3; }
    .line { stroke: #bdf2ff; stroke-width: 4; stroke-linecap: round; stroke-linejoin: round; }
    .thin { stroke: #6ee7ff; stroke-width: 2.5; stroke-linecap: round; stroke-linejoin: round; }
    .dash { stroke-dasharray: 10 12; }
    .label { fill: #f1fbff; font: 700 34px "Azeret Mono", "DejaVu Sans Mono", monospace; letter-spacing: 0; }
    .small { fill: #d7f8ff; font: 650 22px "Azeret Mono", "DejaVu Sans Mono", monospace; letter-spacing: 0; }
    .tiny { fill: #9eeeff; font: 650 17px "Azeret Mono", "DejaVu Sans Mono", monospace; letter-spacing: 0; }
    .tag { fill: #081d33; font: 800 17px "Azeret Mono", "DejaVu Sans Mono", monospace; letter-spacing: 0; }
  </style>
  <rect width="1200" height="676" class="bg"/>
  <rect width="1200" height="676" fill="url(#minorGrid)"/>
  <rect width="1200" height="676" fill="url(#majorGrid)"/>
  <rect x="72" y="72" width="1056" height="532" rx="10" class="panel"/>
  <path d="M72 154H1128M196 72V604M1002 72V604" class="thin"/>
  <text x="116" y="128" class="label" >Query</text>
  <text x="820" y="128" class="tiny" >MDB-03</text>
  <path d="M792 202L1038 286L792 370Z" fill="none" stroke="#6ee7ff" stroke-width="2.5" opacity="0.52"/>
  <path d="M826 224L826 348M880 242L880 330M934 260L934 312" class="thin" opacity="0.5"/>
  <path d="M1038 286H1084M1084 286L1062 268M1084 286L1062 304" class="line" opacity="0.48"/>
  <path d="M798 420C878 390 974 400 1068 452" class="thin dash" opacity="0.5"/>
  <text x="836" y="452" class="tiny" >result envelope</text>
  <rect x="148" y="222" width="328" height="280" rx="8" class="panel2"/>
  <text x="186" y="292" class="small" >type == &quot;task&quot;</text>
<text x="186" y="340" class="small" >status == &quot;open&quot;</text>
<text x="186" y="388" class="small" >order: due</text>
  <path d="M512 232L742 338L512 444Z" class="panel2"/>
  <text x="566" y="344" class="label" >filter</text>
  <rect x="808" y="230" width="220" height="74" rx="8" class="panel2"/>
  <rect x="808" y="340" width="220" height="74" rx="8" class="panel2"/>
  <rect x="808" y="450" width="220" height="74" rx="8" class="panel2"/>
  <text x="836" y="276" class="tiny" >deterministic rows</text>
<text x="836" y="386" class="tiny" >body-aware filters</text>
<text x="836" y="496" class="tiny" >metadata envelope</text>
  <path d="M476 362H512M742 338C774 310 788 286 808 266M742 338C774 356 790 374 808 386M742 338C772 400 790 454 808 486" class="line"/>
</svg>
