<svg width="1200" height="676" viewBox="0 0 1200 676" fill="none" xmlns="http://www.w3.org/2000/svg" role="img" aria-labelledby="title desc">
  <title id="title">Blueprint Systems: Links</title>
  <desc id="desc">Blueprint identity study for Links.</desc>
  <defs>
    <pattern id="minorGrid" width="32" height="32" patternUnits="userSpaceOnUse"><path d="M32 0H0V32" class="grid"/></pattern>
    <pattern id="majorGrid" width="160" height="160" patternUnits="userSpaceOnUse"><path d="M160 0H0V160" class="major"/></pattern>
    <filter id="paper" x="-10%" y="-10%" width="120%" height="120%">
      <feTurbulence type="fractalNoise" baseFrequency="0.72" numOctaves="2" seed="13"/>
      <feColorMatrix type="saturate" values="0"/>
      <feComponentTransfer><feFuncA type="table" tableValues="0 0.06"/></feComponentTransfer>
    </filter>
    <filter id="softShadow" x="-20%" y="-20%" width="140%" height="140%">
      <feDropShadow dx="0" dy="12" stdDeviation="9" flood-color="#1e1919" flood-opacity="0.16"/>
    </filter>
  </defs>
  <style>
    .bg { fill: #081d33; }
    .grid { stroke: #60d8ff; stroke-width: 1; opacity: 0.16; }
    .major { stroke: #60d8ff; stroke-width: 2; opacity: 0.24; }
    .panel { fill: #0d2a47; stroke: #bdf2ff; stroke-width: 4; }
    .panel2 { fill: #12395f; stroke: #6ee7ff; stroke-width: 3; }
    .line { stroke: #bdf2ff; stroke-width: 4; stroke-linecap: round; stroke-linejoin: round; }
    .thin { stroke: #6ee7ff; stroke-width: 2.5; stroke-linecap: round; stroke-linejoin: round; }
    .dash { stroke-dasharray: 10 12; }
    .label { fill: #f1fbff; font: 700 34px "Azeret Mono", "DejaVu Sans Mono", monospace; letter-spacing: 0; }
    .small { fill: #d7f8ff; font: 650 22px "Azeret Mono", "DejaVu Sans Mono", monospace; letter-spacing: 0; }
    .tiny { fill: #9eeeff; font: 650 17px "Azeret Mono", "DejaVu Sans Mono", monospace; letter-spacing: 0; }
    .tag { fill: #081d33; font: 800 17px "Azeret Mono", "DejaVu Sans Mono", monospace; letter-spacing: 0; }
  </style>
  <rect width="1200" height="676" class="bg"/>
  <rect width="1200" height="676" fill="url(#minorGrid)"/>
  <rect width="1200" height="676" fill="url(#majorGrid)"/>
  <rect x="72" y="72" width="1056" height="532" rx="10" class="panel"/>
  <path d="M72 154H1128M196 72V604M1002 72V604" class="thin"/>
  <text x="116" y="128" class="label" >Links</text>
  <text x="820" y="128" class="tiny" >MDB-04</text>
  <circle cx="854" cy="242" r="48" fill="none" stroke="#6ee7ff" stroke-width="2.5" opacity="0.5"/>
  <circle cx="1004" cy="292" r="58" fill="none" stroke="#6ee7ff" stroke-width="2.5" opacity="0.5"/>
  <circle cx="910" cy="408" r="54" fill="none" stroke="#6ee7ff" stroke-width="2.5" opacity="0.5"/>
  <path d="M894 258L954 276M886 284L920 370M962 346L940 384" class="thin dash" opacity="0.6"/>
  <path d="M794 486H1080M794 486C834 454 892 446 962 464C1012 476 1050 468 1080 438" class="thin" opacity="0.45"/>
  <text x="822" y="526" class="tiny" >preserve link shape</text>
  <circle cx="260" cy="320" r="78" class="panel2"/>
  <circle cx="508" cy="248" r="68" class="panel2"/>
  <circle cx="520" cy="452" r="78" class="panel2"/>
  <circle cx="790" cy="338" r="88" class="panel2"/>
  <text x="214" y="328" class="small" >raw</text>
  <text x="466" y="256" class="small" >id</text>
  <text x="460" y="460" class="small" >path</text>
  <text x="746" y="346" class="small" >file</text>
  <path d="M334 300C382 272 426 254 440 252M338 350C398 404 432 436 444 444M588 452C660 426 718 388 744 362M576 258C650 276 716 304 746 326" class="line dash"/>
  <rect x="864" y="486" width="190" height="44" rx="22" fill="#6ee7ff"/>
  <text x="892" y="514" class="tag" >format kept</text>
</svg>
