<svg width="1200" height="676" viewBox="0 0 1200 676" fill="none" xmlns="http://www.w3.org/2000/svg" role="img" aria-labelledby="title desc">
  <title id="title">Blueprint Systems: Runtime</title>
  <desc id="desc">Blueprint identity study for Runtime.</desc>
  <defs>
    <pattern id="minorGrid" width="32" height="32" patternUnits="userSpaceOnUse"><path d="M32 0H0V32" class="grid"/></pattern>
    <pattern id="majorGrid" width="160" height="160" patternUnits="userSpaceOnUse"><path d="M160 0H0V160" class="major"/></pattern>
    <filter id="paper" x="-10%" y="-10%" width="120%" height="120%">
      <feTurbulence type="fractalNoise" baseFrequency="0.72" numOctaves="2" seed="14"/>
      <feColorMatrix type="saturate" values="0"/>
      <feComponentTransfer><feFuncA type="table" tableValues="0 0.06"/></feComponentTransfer>
    </filter>
    <filter id="softShadow" x="-20%" y="-20%" width="140%" height="140%">
      <feDropShadow dx="0" dy="12" stdDeviation="9" flood-color="#1e1919" flood-opacity="0.16"/>
    </filter>
  </defs>
  <style>
    .bg { fill: #081d33; }
    .grid { stroke: #60d8ff; stroke-width: 1; opacity: 0.16; }
    .major { stroke: #60d8ff; stroke-width: 2; opacity: 0.24; }
    .panel { fill: #0d2a47; stroke: #bdf2ff; stroke-width: 4; }
    .panel2 { fill: #12395f; stroke: #6ee7ff; stroke-width: 3; }
    .line { stroke: #bdf2ff; stroke-width: 4; stroke-linecap: round; stroke-linejoin: round; }
    .thin { stroke: #6ee7ff; stroke-width: 2.5; stroke-linecap: round; stroke-linejoin: round; }
    .dash { stroke-dasharray: 10 12; }
    .label { fill: #f1fbff; font: 700 34px "Azeret Mono", "DejaVu Sans Mono", monospace; letter-spacing: 0; }
    .small { fill: #d7f8ff; font: 650 22px "Azeret Mono", "DejaVu Sans Mono", monospace; letter-spacing: 0; }
    .tiny { fill: #9eeeff; font: 650 17px "Azeret Mono", "DejaVu Sans Mono", monospace; letter-spacing: 0; }
    .tag { fill: #081d33; font: 800 17px "Azeret Mono", "DejaVu Sans Mono", monospace; letter-spacing: 0; }
  </style>
  <rect width="1200" height="676" class="bg"/>
  <rect width="1200" height="676" fill="url(#minorGrid)"/>
  <rect width="1200" height="676" fill="url(#majorGrid)"/>
  <rect x="72" y="72" width="1056" height="532" rx="10" class="panel"/>
  <path d="M72 154H1128M196 72V604M1002 72V604" class="thin"/>
  <text x="116" y="128" class="label" >Runtime</text>
  <text x="820" y="128" class="tiny" >MDB-05</text>
  <path d="M792 218H1060V430H792Z" fill="none" stroke="#6ee7ff" stroke-width="2.5" opacity="0.5"/>
  <path d="M826 256H900V332H826ZM948 256H1024V332H948ZM886 370H966V408H886Z" fill="none" stroke="#6ee7ff" stroke-width="2.5" opacity="0.52"/>
  <path d="M900 294H948M930 332V370" class="thin" opacity="0.6"/>
  <path d="M802 472H1072M802 506H1020M802 540H1052" class="thin" opacity="0.45"/>
  <text x="812" y="454" class="tiny" >effects ledger</text>
  <rect x="150" y="250" width="220" height="120" rx="8" class="panel2"/>
  <rect x="490" y="250" width="220" height="120" rx="8" class="panel2"/>
  <rect x="830" y="250" width="220" height="120" rx="8" class="panel2"/>
  <text x="196" y="320" class="small" >event</text>
  <text x="522" y="320" class="small" >workflow</text>
  <text x="876" y="320" class="small" >action</text>
  <path d="M370 310H490M710 310H830" class="line"/>
  <path d="M468 292L490 310L468 328M808 292L830 310L808 328" class="line"/>
  <path d="M196 424H1008" class="thin dash"/>
  <text x="214" y="470" class="tiny" >file_modified</text>
<text x="214" y="504" class="tiny" >workflow step</text>
<text x="214" y="538" class="tiny" >record.patch</text>
  <text x="836" y="470" class="tiny" >policy gate</text>
<text x="836" y="504" class="tiny" >idempotent write</text>
<text x="836" y="538" class="tiny" >effect log</text>
</svg>
