<svg width="1200" height="676" viewBox="0 0 1200 676" fill="none" xmlns="http://www.w3.org/2000/svg" role="img" aria-labelledby="title desc">
  <title id="title">Signal Graph: Collection</title>
  <desc id="desc">Signal graph identity study for Collection.</desc>
  <defs>
    <pattern id="signalGrid" width="40" height="40" patternUnits="userSpaceOnUse"><path d="M40 0H0V40" class="grid"/></pattern>
    <filter id="glow" x="-60%" y="-60%" width="220%" height="220%"><feDropShadow dx="0" dy="0" stdDeviation="12" flood-color="#32f29b" flood-opacity="0.45"/></filter>
    <filter id="paper" x="-10%" y="-10%" width="120%" height="120%">
      <feTurbulence type="fractalNoise" baseFrequency="0.72" numOctaves="2" seed="70"/>
      <feColorMatrix type="saturate" values="0"/>
      <feComponentTransfer><feFuncA type="table" tableValues="0 0.06"/></feComponentTransfer>
    </filter>
    <filter id="softShadow" x="-20%" y="-20%" width="140%" height="140%">
      <feDropShadow dx="0" dy="12" stdDeviation="9" flood-color="#1e1919" flood-opacity="0.16"/>
    </filter>
  </defs>
  <style>
    .bg { fill: #fbfffb; }
    .grid { stroke: #cceede; stroke-width: 1.2; }
    .panel { fill: #ffffff; stroke: #14231c; stroke-width: 4; }
    .nodeA { fill: #32f29b; stroke: #14231c; stroke-width: 5; }
    .nodeB { fill: #38a7ff; stroke: #14231c; stroke-width: 5; }
    .nodeC { fill: #ff5a7c; stroke: #14231c; stroke-width: 5; }
    .line { stroke: #14231c; stroke-width: 4; stroke-linecap: round; stroke-linejoin: round; }
    .thin { stroke: #19b875; stroke-width: 3; stroke-linecap: round; stroke-linejoin: round; }
    .dash { stroke-dasharray: 8 12; }
    .label { fill: #14231c; font: 800 36px "DejaVu Sans", Arial, sans-serif; letter-spacing: 0; }
    .small { fill: #14231c; font: 750 23px "DejaVu Sans", Arial, sans-serif; letter-spacing: 0; }
    .tiny { fill: #14231c; font: 700 16px "Azeret Mono", "DejaVu Sans Mono", monospace; letter-spacing: 0; }
  </style>
  <rect width="1200" height="676" class="bg"/>
  <rect width="1200" height="676" fill="url(#signalGrid)" opacity="0.75"/>
  <rect x="78" y="76" width="1046" height="524" rx="22" class="panel"/>
  <circle cx="1018" cy="114" r="9" fill="#32f29b" stroke="#14231c" stroke-width="3"/>
  <circle cx="1050" cy="114" r="9" fill="#38a7ff" stroke="#14231c" stroke-width="3"/>
  <circle cx="1082" cy="114" r="9" fill="#ff5a7c" stroke="#14231c" stroke-width="3"/>
  <path d="M920 150C938 126 958 126 976 150S1014 174 1032 150S1070 126 1092 150" fill="none" stroke="#19b875" stroke-width="3" opacity="0.62"/>
  <path d="M892 190H1096" class="thin" opacity="0.24"/>
  <text x="118" y="144" class="label" >Collection</text>
  <text x="120" y="180" class="small" >folder as data surface</text>
  <path d="M838 152C946 186 1008 264 1020 372" class="thin dash" opacity="0.52"/>
  <circle cx="1020" cy="372" r="44" fill="none" stroke="#19b875" stroke-width="3" opacity="0.42"/>
  <circle cx="1020" cy="372" r="84" fill="none" stroke="#19b875" stroke-width="2" opacity="0.24"/>
  <path d="M890 492H1062M890 520H1034M890 548H1052" class="thin" opacity="0.28"/>
  <circle cx="244" cy="362" r="88" class="nodeB" filter="url(#glow)"/>
  <circle cx="522" cy="280" r="86" class="nodeA" filter="url(#glow)"/>
  <circle cx="522" cy="468" r="86" class="nodeA" filter="url(#glow)"/>
  <circle cx="824" cy="374" r="106" class="nodeC" filter="url(#glow)"/>
  <path d="M330 342L438 296M330 382L438 452M608 300L728 350M608 448L728 398" class="line dash"/>
  <text x="486" y="288" class="tiny" >types</text>
  <text x="486" y="476" class="tiny" >notes</text>
  <text x="782" y="382" class="tiny" >scan</text>
  <rect x="154" y="516" width="242" height="58" rx="29" fill="#ffffff" stroke="#14231c" stroke-width="4"/>
  <text x="178" y="552" class="tiny" >mdbase.yaml</text>
  <rect x="460" y="516" width="260" height="58" rx="29" fill="#ffffff" stroke="#14231c" stroke-width="4"/>
  <text x="484" y="552" class="tiny" >_types/task.md</text>
  <rect x="770" y="516" width="240" height="58" rx="29" fill="#ffffff" stroke="#14231c" stroke-width="4"/>
  <text x="794" y="552" class="tiny" >rooted scan</text>
</svg>
