<svg width="1200" height="676" viewBox="0 0 1200 676" fill="none" xmlns="http://www.w3.org/2000/svg" role="img" aria-labelledby="title desc">
  <title id="title">Signal Graph: Types</title>
  <desc id="desc">Signal graph identity study for Types.</desc>
  <defs>
    <pattern id="signalGrid" width="40" height="40" patternUnits="userSpaceOnUse"><path d="M40 0H0V40" class="grid"/></pattern>
    <filter id="glow" x="-60%" y="-60%" width="220%" height="220%"><feDropShadow dx="0" dy="0" stdDeviation="12" flood-color="#32f29b" flood-opacity="0.45"/></filter>
    <filter id="paper" x="-10%" y="-10%" width="120%" height="120%">
      <feTurbulence type="fractalNoise" baseFrequency="0.72" numOctaves="2" seed="71"/>
      <feColorMatrix type="saturate" values="0"/>
      <feComponentTransfer><feFuncA type="table" tableValues="0 0.06"/></feComponentTransfer>
    </filter>
    <filter id="softShadow" x="-20%" y="-20%" width="140%" height="140%">
      <feDropShadow dx="0" dy="12" stdDeviation="9" flood-color="#1e1919" flood-opacity="0.16"/>
    </filter>
  </defs>
  <style>
    .bg { fill: #fbfffb; }
    .grid { stroke: #cceede; stroke-width: 1.2; }
    .panel { fill: #ffffff; stroke: #14231c; stroke-width: 4; }
    .nodeA { fill: #32f29b; stroke: #14231c; stroke-width: 5; }
    .nodeB { fill: #38a7ff; stroke: #14231c; stroke-width: 5; }
    .nodeC { fill: #ff5a7c; stroke: #14231c; stroke-width: 5; }
    .line { stroke: #14231c; stroke-width: 4; stroke-linecap: round; stroke-linejoin: round; }
    .thin { stroke: #19b875; stroke-width: 3; stroke-linecap: round; stroke-linejoin: round; }
    .dash { stroke-dasharray: 8 12; }
    .label { fill: #14231c; font: 800 36px "DejaVu Sans", Arial, sans-serif; letter-spacing: 0; }
    .small { fill: #14231c; font: 750 23px "DejaVu Sans", Arial, sans-serif; letter-spacing: 0; }
    .tiny { fill: #14231c; font: 700 16px "Azeret Mono", "DejaVu Sans Mono", monospace; letter-spacing: 0; }
  </style>
  <rect width="1200" height="676" class="bg"/>
  <rect width="1200" height="676" fill="url(#signalGrid)" opacity="0.75"/>
  <rect x="78" y="76" width="1046" height="524" rx="22" class="panel"/>
  <circle cx="1018" cy="114" r="9" fill="#32f29b" stroke="#14231c" stroke-width="3"/>
  <circle cx="1050" cy="114" r="9" fill="#38a7ff" stroke="#14231c" stroke-width="3"/>
  <circle cx="1082" cy="114" r="9" fill="#ff5a7c" stroke="#14231c" stroke-width="3"/>
  <path d="M920 150C938 126 958 126 976 150S1014 174 1032 150S1070 126 1092 150" fill="none" stroke="#19b875" stroke-width="3" opacity="0.62"/>
  <path d="M892 190H1096" class="thin" opacity="0.24"/>
  <text x="118" y="144" class="label" >Types</text>
  <text x="120" y="180" class="small" >schema files with prose</text>
  <path d="M218 248C318 170 458 150 590 188" class="thin dash" opacity="0.5"/>
  <path d="M218 248C298 330 406 378 540 392" class="thin dash" opacity="0.42"/>
  <path d="M868 178H1046L1012 238H902Z" fill="none" stroke="#19b875" stroke-width="3" opacity="0.34"/>
  <path d="M886 214H1028M902 256H1010M918 294H994" class="thin" opacity="0.28"/>
  <circle cx="600" cy="246" r="92" class="nodeA" filter="url(#glow)"/>
  <circle cx="382" cy="420" r="84" class="nodeB" filter="url(#glow)"/>
  <circle cx="600" cy="452" r="84" class="nodeB" filter="url(#glow)"/>
  <circle cx="818" cy="420" r="84" class="nodeC" filter="url(#glow)"/>
  <path d="M554 322L426 386M600 338V368M646 322L774 386" class="line"/>
  <text x="560" y="254" class="tiny" >base</text>
  <text x="346" y="428" class="tiny" >fields</text>
  <text x="562" y="460" class="tiny" >defaults</text>
  <text x="770" y="428" class="tiny" >strict</text>
  <rect x="204" y="532" width="240" height="58" rx="29" fill="#ffffff" stroke="#14231c" stroke-width="4"/>
  <text x="228" y="568" class="tiny" >inherits rules</text>
  <rect x="480" y="532" width="250" height="58" rx="29" fill="#ffffff" stroke="#14231c" stroke-width="4"/>
  <text x="504" y="568" class="tiny" >validates records</text>
  <rect x="770" y="532" width="250" height="58" rx="29" fill="#ffffff" stroke="#14231c" stroke-width="4"/>
  <text x="794" y="568" class="tiny" >documents shape</text>
</svg>
