<svg width="1200" height="676" viewBox="0 0 1200 676" fill="none" xmlns="http://www.w3.org/2000/svg" role="img" aria-labelledby="title desc">
  <title id="title">Signal Graph: Query</title>
  <desc id="desc">Signal graph identity study for Query.</desc>
  <defs>
    <pattern id="signalGrid" width="40" height="40" patternUnits="userSpaceOnUse"><path d="M40 0H0V40" class="grid"/></pattern>
    <filter id="glow" x="-60%" y="-60%" width="220%" height="220%"><feDropShadow dx="0" dy="0" stdDeviation="12" flood-color="#32f29b" flood-opacity="0.45"/></filter>
    <filter id="paper" x="-10%" y="-10%" width="120%" height="120%">
      <feTurbulence type="fractalNoise" baseFrequency="0.72" numOctaves="2" seed="72"/>
      <feColorMatrix type="saturate" values="0"/>
      <feComponentTransfer><feFuncA type="table" tableValues="0 0.06"/></feComponentTransfer>
    </filter>
    <filter id="softShadow" x="-20%" y="-20%" width="140%" height="140%">
      <feDropShadow dx="0" dy="12" stdDeviation="9" flood-color="#1e1919" flood-opacity="0.16"/>
    </filter>
  </defs>
  <style>
    .bg { fill: #fbfffb; }
    .grid { stroke: #cceede; stroke-width: 1.2; }
    .panel { fill: #ffffff; stroke: #14231c; stroke-width: 4; }
    .nodeA { fill: #32f29b; stroke: #14231c; stroke-width: 5; }
    .nodeB { fill: #38a7ff; stroke: #14231c; stroke-width: 5; }
    .nodeC { fill: #ff5a7c; stroke: #14231c; stroke-width: 5; }
    .line { stroke: #14231c; stroke-width: 4; stroke-linecap: round; stroke-linejoin: round; }
    .thin { stroke: #19b875; stroke-width: 3; stroke-linecap: round; stroke-linejoin: round; }
    .dash { stroke-dasharray: 8 12; }
    .label { fill: #14231c; font: 800 36px "DejaVu Sans", Arial, sans-serif; letter-spacing: 0; }
    .small { fill: #14231c; font: 750 23px "DejaVu Sans", Arial, sans-serif; letter-spacing: 0; }
    .tiny { fill: #14231c; font: 700 16px "Azeret Mono", "DejaVu Sans Mono", monospace; letter-spacing: 0; }
  </style>
  <rect width="1200" height="676" class="bg"/>
  <rect width="1200" height="676" fill="url(#signalGrid)" opacity="0.75"/>
  <rect x="78" y="76" width="1046" height="524" rx="22" class="panel"/>
  <circle cx="1018" cy="114" r="9" fill="#32f29b" stroke="#14231c" stroke-width="3"/>
  <circle cx="1050" cy="114" r="9" fill="#38a7ff" stroke="#14231c" stroke-width="3"/>
  <circle cx="1082" cy="114" r="9" fill="#ff5a7c" stroke="#14231c" stroke-width="3"/>
  <path d="M920 150C938 126 958 126 976 150S1014 174 1032 150S1070 126 1092 150" fill="none" stroke="#19b875" stroke-width="3" opacity="0.62"/>
  <path d="M892 190H1096" class="thin" opacity="0.24"/>
  <text x="118" y="144" class="label" >Query</text>
  <text x="120" y="180" class="small" >filters over files</text>
  <path d="M778 160H1040V242H778ZM778 274H1040V356H778ZM778 388H1040V470H778" fill="none" stroke="#19b875" stroke-width="3" opacity="0.34"/>
  <path d="M846 202L812 202M846 316L812 316M846 430L812 430M1006 202H1066M1006 316H1066M1006 430H1066" class="thin" opacity="0.32"/>
  <path d="M936 508C984 476 1034 476 1080 508" class="thin dash" opacity="0.4"/>
  <circle cx="246" cy="344" r="82" class="nodeB" filter="url(#glow)"/>
  <path d="M392 210L724 338L392 466Z" class="nodeA" filter="url(#glow)"/>
  <circle cx="898" cy="260" r="66" class="nodeC" filter="url(#glow)"/>
  <circle cx="930" cy="420" r="82" class="nodeC" filter="url(#glow)"/>
  <path d="M328 344H430M724 338C792 300 828 278 840 268M724 338C794 376 836 402 850 414" class="line dash"/>
  <text x="500" y="348" class="tiny" >where</text>
  <rect x="146" y="520" width="260" height="58" rx="29" fill="#ffffff" stroke="#14231c" stroke-width="4"/>
  <text x="170" y="556" class="tiny" >type == &quot;task&quot;</text>
  <rect x="470" y="520" width="240" height="58" rx="29" fill="#ffffff" stroke="#14231c" stroke-width="4"/>
  <text x="494" y="556" class="tiny" >status == &quot;open&quot;</text>
  <rect x="782" y="520" width="300" height="58" rx="29" fill="#ffffff" stroke="#14231c" stroke-width="4"/>
  <text x="806" y="556" class="tiny" >deterministic rows</text>
</svg>
