<svg width="1200" height="676" viewBox="0 0 1200 676" fill="none" xmlns="http://www.w3.org/2000/svg" role="img" aria-labelledby="title desc">
  <title id="title">Signal Graph: Runtime</title>
  <desc id="desc">Signal graph identity study for Runtime.</desc>
  <defs>
    <pattern id="signalGrid" width="40" height="40" patternUnits="userSpaceOnUse"><path d="M40 0H0V40" class="grid"/></pattern>
    <filter id="glow" x="-60%" y="-60%" width="220%" height="220%"><feDropShadow dx="0" dy="0" stdDeviation="12" flood-color="#32f29b" flood-opacity="0.45"/></filter>
    <filter id="paper" x="-10%" y="-10%" width="120%" height="120%">
      <feTurbulence type="fractalNoise" baseFrequency="0.72" numOctaves="2" seed="74"/>
      <feColorMatrix type="saturate" values="0"/>
      <feComponentTransfer><feFuncA type="table" tableValues="0 0.06"/></feComponentTransfer>
    </filter>
    <filter id="softShadow" x="-20%" y="-20%" width="140%" height="140%">
      <feDropShadow dx="0" dy="12" stdDeviation="9" flood-color="#1e1919" flood-opacity="0.16"/>
    </filter>
  </defs>
  <style>
    .bg { fill: #fbfffb; }
    .grid { stroke: #cceede; stroke-width: 1.2; }
    .panel { fill: #ffffff; stroke: #14231c; stroke-width: 4; }
    .nodeA { fill: #32f29b; stroke: #14231c; stroke-width: 5; }
    .nodeB { fill: #38a7ff; stroke: #14231c; stroke-width: 5; }
    .nodeC { fill: #ff5a7c; stroke: #14231c; stroke-width: 5; }
    .line { stroke: #14231c; stroke-width: 4; stroke-linecap: round; stroke-linejoin: round; }
    .thin { stroke: #19b875; stroke-width: 3; stroke-linecap: round; stroke-linejoin: round; }
    .dash { stroke-dasharray: 8 12; }
    .label { fill: #14231c; font: 800 36px "DejaVu Sans", Arial, sans-serif; letter-spacing: 0; }
    .small { fill: #14231c; font: 750 23px "DejaVu Sans", Arial, sans-serif; letter-spacing: 0; }
    .tiny { fill: #14231c; font: 700 16px "Azeret Mono", "DejaVu Sans Mono", monospace; letter-spacing: 0; }
  </style>
  <rect width="1200" height="676" class="bg"/>
  <rect width="1200" height="676" fill="url(#signalGrid)" opacity="0.75"/>
  <rect x="78" y="76" width="1046" height="524" rx="22" class="panel"/>
  <circle cx="1018" cy="114" r="9" fill="#32f29b" stroke="#14231c" stroke-width="3"/>
  <circle cx="1050" cy="114" r="9" fill="#38a7ff" stroke="#14231c" stroke-width="3"/>
  <circle cx="1082" cy="114" r="9" fill="#ff5a7c" stroke="#14231c" stroke-width="3"/>
  <path d="M920 150C938 126 958 126 976 150S1014 174 1032 150S1070 126 1092 150" fill="none" stroke="#19b875" stroke-width="3" opacity="0.62"/>
  <path d="M892 190H1096" class="thin" opacity="0.24"/>
  <text x="118" y="144" class="label" >Runtime</text>
  <text x="120" y="180" class="small" >events, workflows, actions</text>
  <path d="M192 240H994M192 328H994M192 416H994" class="thin" opacity="0.3"/>
  <path d="M276 214V456M600 214V456M910 214V456" class="thin" opacity="0.24"/>
  <path d="M208 492C284 458 350 458 426 492S578 526 654 492S806 458 882 492S1034 526 1092 494" fill="none" stroke="#19b875" stroke-width="3" opacity="0.42"/>
  <circle cx="232" cy="360" r="80" class="nodeB" filter="url(#glow)"/>
  <rect x="398" y="246" width="262" height="228" rx="32" class="nodeA" filter="url(#glow)"/>
  <circle cx="846" cy="360" r="92" class="nodeC" filter="url(#glow)"/>
  <path d="M312 360H398M660 360H754" class="line"/>
  <path d="M376 334L398 360L376 386M730 334L754 360L730 386" class="line"/>
  <text x="190" y="368" class="tiny" >event</text>
  <text x="448" y="356" class="tiny" >workflow</text>
  <text x="802" y="368" class="tiny" >action</text>
  <rect x="154" y="522" width="240" height="58" rx="29" fill="#ffffff" stroke="#14231c" stroke-width="4"/>
  <text x="178" y="558" class="tiny" >file_modified</text>
  <rect x="462" y="522" width="240" height="58" rx="29" fill="#ffffff" stroke="#14231c" stroke-width="4"/>
  <text x="486" y="558" class="tiny" >workflow step</text>
  <rect x="770" y="522" width="240" height="58" rx="29" fill="#ffffff" stroke="#14231c" stroke-width="4"/>
  <text x="794" y="558" class="tiny" >record.patch</text>
</svg>
